<?xml version="1.0" standalone="no"?>
<!DOCTYPE svg PUBLIC "-//W3C//DTD SVG 20010904//EN"
 "http://www.w3.org/TR/2001/REC-SVG-20010904/DTD/svg10.dtd">
<svg version="1.0" xmlns="http://www.w3.org/2000/svg"
 width="768.000000pt" height="768.000000pt" viewBox="0 0 768.000000 768.000000"
 preserveAspectRatio="xMidYMid meet">
<metadata>
Created by potrace 1.14, written by Peter Selinger 2001-2017
</metadata>
<g transform="translate(0.000000,768.000000) scale(0.100000,-0.100000)"
fill="#000000" stroke="none">
<path d="M3825 7081 c-6 -4 -41 -25 -80 -46 -220 -119 -462 -314 -655 -531
-89 -99 -106 -120 -150 -179 -25 -33 -48 -62 -51 -65 -15 -13 -160 -237 -216
-335 -77 -134 -213 -408 -213 -429 0 -9 -4 -16 -8 -16 -5 0 -9 -6 -9 -12 0 -7
-17 -50 -36 -95 -20 -44 -33 -84 -30 -87 4 -3 2 -6 -4 -6 -5 0 -10 -6 -10 -12
0 -11 -25 -89 -51 -158 -3 -8 -6 -18 -7 -22 -2 -5 -4 -10 -5 -13 -1 -3 -3 -8
-4 -12 -2 -5 -8 -28 -15 -53 -14 -49 -13 -46 -38 -138 l-16 -64 74 -69 c41
-39 91 -86 111 -106 l37 -36 10 39 c6 22 12 48 14 59 2 11 9 40 16 65 7 25 15
54 17 65 11 58 123 396 159 480 7 17 25 59 40 95 15 36 58 126 95 201 61 122
88 172 127 234 7 11 21 36 32 55 20 36 164 240 216 305 161 202 377 401 584
536 l86 56 84 -55 c145 -93 241 -172 376 -307 72 -71 140 -142 152 -157 121
-149 293 -393 293 -416 0 -7 5 -12 10 -12 6 0 10 -7 10 -15 0 -8 5 -15 12 -15
6 0 8 -3 5 -7 -4 -3 -1 -13 7 -22 16 -19 127 -235 173 -336 57 -129 153 -382
168 -445 2 -8 18 -62 35 -119 16 -57 39 -144 51 -192 11 -49 22 -89 23 -89 1
0 52 49 114 108 104 101 112 111 103 133 -11 26 -44 137 -46 154 -1 17 -28
100 -36 110 -3 6 -10 26 -14 45 -4 19 -12 41 -19 49 -6 8 -9 16 -7 18 3 4 -18
66 -39 118 -4 11 -27 67 -51 125 -60 147 -169 363 -257 510 -201 337 -408 583
-698 830 -87 74 -254 186 -387 258 -63 35 -68 36 -82 23z"/>
<path d="M3800 6433 c-126 -96 -297 -259 -375 -358 -22 -27 -42 -52 -45 -55
-18 -18 -79 -103 -135 -187 -35 -54 -68 -102 -72 -108 -5 -5 -14 -21 -21 -35
-7 -14 -24 -45 -39 -70 -115 -201 -276 -587 -318 -760 -8 -31 -28 -100 -35
-120 -5 -14 -11 -36 -13 -50 -2 -14 -6 -32 -9 -40 -3 -8 -16 -64 -28 -125 -11
-60 -25 -124 -29 -141 -8 -31 4 -55 67 -129 9 -11 30 -38 46 -60 17 -22 33
-42 36 -45 4 -3 15 -20 25 -37 11 -18 23 -33 27 -33 4 0 8 -7 8 -15 0 -8 4
-15 9 -15 5 0 11 26 15 58 11 104 14 126 36 247 27 147 45 229 71 319 12 38
22 76 24 85 2 9 16 54 31 101 15 47 28 88 28 92 1 3 4 10 9 14 4 4 7 14 7 23
1 9 9 34 20 56 11 22 19 46 20 53 0 7 4 20 10 30 5 9 23 49 40 87 105 240 265
504 410 677 63 75 215 228 227 228 18 0 171 -157 258 -265 188 -231 382 -597
485 -910 12 -38 25 -77 28 -85 3 -8 6 -18 7 -22 2 -5 4 -10 5 -13 3 -6 4 -8
14 -50 5 -16 19 -70 33 -120 14 -49 27 -99 29 -110 2 -11 6 -31 9 -45 3 -14 7
-35 10 -48 2 -13 6 -31 9 -40 3 -9 8 -42 11 -72 4 -30 8 -57 10 -60 4 -6 13
-66 20 -135 3 -27 7 -59 9 -70 3 -11 5 -22 5 -24 1 -3 20 22 44 55 23 33 74
100 112 148 47 59 69 95 67 110 -2 11 -5 32 -8 46 -3 14 -7 36 -9 50 -35 222
-146 582 -262 853 -88 205 -243 472 -379 652 -134 177 -312 361 -418 434 -12
8 -23 18 -26 21 -3 3 -18 15 -35 27 l-30 21 -45 -35z"/>
<path d="M3833 5735 c-26 -28 -166 -221 -190 -263 -15 -26 -31 -48 -35 -50 -4
-2 -8 -9 -8 -16 0 -8 -9 -25 -21 -40 -11 -14 -18 -26 -14 -26 3 0 -2 -12 -12
-27 -97 -145 -276 -641 -318 -883 -3 -19 -10 -53 -15 -75 -5 -22 -12 -62 -16
-90 -3 -27 -8 -59 -10 -70 -2 -11 -6 -40 -9 -65 -3 -25 -8 -59 -10 -77 -7 -50
-17 -199 -20 -308 l-3 -100 53 -105 c116 -232 241 -548 280 -710 2 -8 4 -15 5
-15 1 0 3 -7 5 -15 44 -173 55 -220 59 -245 3 -16 8 -41 11 -55 8 -42 24 -133
30 -175 3 -23 7 -50 9 -60 5 -26 16 -161 21 -249 3 -60 9 -76 42 -125 21 -31
43 -60 49 -66 6 -5 17 -19 25 -31 8 -11 34 -44 58 -72 l45 -52 25 28 c67 75
140 167 175 223 10 17 18 56 22 107 5 90 12 177 14 177 1 0 3 14 5 30 5 59 16
140 20 155 2 8 7 35 10 60 4 24 8 47 10 50 2 3 6 23 9 45 12 75 67 280 115
425 61 184 123 336 216 525 l73 150 -3 110 c-4 119 -13 252 -20 300 -2 17 -7
53 -10 80 -6 50 -10 83 -20 140 -14 82 -17 101 -20 110 -1 6 -5 28 -10 50 -6
34 -19 87 -40 165 -2 8 -11 42 -20 75 -55 209 -177 503 -286 694 -27 46 -49
87 -49 92 0 4 -3 9 -8 11 -4 2 -27 33 -50 70 -24 37 -52 77 -63 90 -10 13 -22
28 -26 33 -44 57 -70 80 -80 70z m90 -587 c30 -59 52 -109 49 -112 -3 -3 -1
-6 4 -6 6 0 16 -17 23 -37 7 -21 21 -56 31 -78 19 -43 99 -277 106 -309 2 -10
10 -42 18 -70 17 -60 19 -68 46 -206 21 -108 23 -119 35 -205 4 -27 9 -57 10
-66 11 -54 19 -230 19 -399 1 -173 -3 -259 -19 -408 -7 -63 -43 -257 -61 -327
-8 -33 -16 -67 -17 -75 -28 -156 -205 -576 -297 -703 l-28 -38 -23 38 c-62
103 -154 283 -174 343 -1 3 -7 19 -14 35 -44 110 -103 291 -116 360 -3 11 -9
41 -15 66 -12 49 -13 53 -23 109 -11 54 -16 91 -23 145 -3 28 -8 61 -10 75
-17 98 -24 465 -11 640 7 102 13 153 27 240 6 30 12 73 16 95 5 33 20 108 39
195 26 118 118 404 160 495 14 31 25 58 25 60 0 9 100 207 122 243 26 43 30
39 101 -100z"/>
<path d="M3836 4613 c-4 -12 -9 -30 -11 -40 -2 -10 -15 -58 -29 -106 -14 -49
-27 -100 -30 -115 -3 -15 -11 -61 -20 -102 -15 -77 -26 -146 -31 -190 -1 -14
-6 -61 -11 -105 -16 -149 -9 -591 12 -698 2 -12 6 -33 8 -47 3 -14 7 -41 10
-60 18 -127 94 -412 110 -411 18 0 57 137 100 346 30 148 43 241 51 370 9 134
3 432 -9 520 -2 17 -7 55 -11 85 -3 30 -13 93 -22 140 -8 47 -17 96 -20 110
-9 56 -63 260 -76 292 -13 31 -14 31 -21 11z"/>
<path d="M309 5393 c-13 -3 -85 -140 -132 -253 -41 -96 -98 -300 -121 -430 -3
-19 -8 -44 -10 -56 -4 -22 -15 -97 -24 -174 -7 -61 -11 -543 -5 -554 3 -4 7
-29 9 -55 6 -84 29 -255 39 -291 2 -8 6 -33 10 -55 3 -22 7 -47 10 -55 2 -8 7
-28 10 -45 12 -59 16 -76 41 -168 14 -50 27 -99 29 -108 6 -27 96 -292 110
-324 7 -16 35 -79 60 -140 42 -98 165 -347 198 -400 58 -94 77 -126 77 -131 0
-2 5 -10 10 -17 6 -7 40 -57 77 -112 65 -99 190 -266 235 -315 13 -14 49 -55
81 -92 98 -113 324 -332 390 -377 12 -8 24 -18 27 -21 3 -3 34 -28 70 -55 36
-27 67 -53 68 -57 2 -4 8 -8 12 -8 5 0 37 -20 72 -44 199 -139 457 -267 698
-346 100 -33 130 -42 185 -56 38 -9 192 -37 265 -48 19 -3 87 -8 150 -12 95
-5 118 -4 128 9 7 8 34 58 61 111 l49 97 -87 89 c-47 49 -90 90 -95 92 -4 2
-17 -19 -28 -47 -11 -27 -24 -54 -29 -60 -5 -5 -9 -18 -9 -28 0 -18 -5 -19
-67 -13 -100 10 -119 13 -223 35 -223 46 -547 176 -720 289 -14 9 -27 17 -30
17 -14 1 -225 150 -318 225 -143 114 -381 351 -487 485 -22 28 -42 52 -45 55
-22 21 -178 244 -227 325 -108 178 -179 314 -266 505 -74 165 -188 516 -223
685 -2 11 -6 31 -9 45 -12 55 -41 231 -49 296 -33 267 -27 606 15 834 6 30 12
66 15 80 19 106 87 318 125 393 14 27 25 37 37 33 17 -5 73 -14 127 -20 92
-12 320 -79 450 -133 239 -100 530 -273 708 -422 156 -130 218 -186 309 -275
27 -26 51 -46 54 -43 5 5 9 26 19 107 2 19 7 46 10 60 17 83 17 115 -3 135
-29 30 -90 85 -152 135 -30 25 -57 47 -60 50 -3 3 -34 28 -70 55 -36 27 -66
53 -68 57 -2 4 -7 8 -12 8 -5 0 -41 23 -82 51 -72 50 -283 179 -293 179 -3 0
-22 11 -43 24 -20 12 -40 24 -44 25 -4 1 -43 18 -85 37 -111 50 -112 50 -173
73 -64 23 -247 80 -282 86 -12 3 -34 7 -48 10 -84 19 -194 35 -269 41 -47 3
-97 7 -111 8 -14 1 -32 1 -41 -1z"/>
<path d="M7337 5394 c-1 -1 -42 -5 -92 -8 -49 -4 -97 -7 -105 -8 -30 -2 -209
-37 -251 -49 -24 -7 -48 -13 -54 -15 -88 -19 -340 -116 -465 -179 -223 -112
-518 -308 -679 -451 -14 -12 -36 -31 -48 -41 -110 -95 -114 -101 -109 -153 2
-27 7 -53 10 -58 3 -5 8 -33 11 -63 6 -66 15 -112 21 -118 3 -3 24 15 47 39
123 130 331 303 497 414 47 31 90 60 95 64 32 24 216 126 305 169 108 52 289
123 313 123 7 0 17 3 21 7 3 4 12 8 19 9 7 1 48 11 92 22 80 20 194 41 249 45
23 2 33 -4 46 -28 9 -16 19 -39 23 -50 3 -11 19 -57 35 -102 16 -46 27 -83 25
-83 -3 0 0 -7 7 -15 7 -8 10 -15 7 -15 -3 0 1 -20 9 -45 7 -25 11 -45 8 -45
-3 0 -1 -8 5 -17 5 -10 12 -40 15 -68 4 -27 9 -59 12 -70 5 -23 11 -69 21
-175 13 -141 6 -531 -11 -612 -3 -13 -7 -41 -10 -63 -8 -64 -27 -180 -40 -240
-8 -37 -36 -160 -40 -175 -28 -111 -111 -360 -156 -470 -17 -41 -36 -88 -43
-105 -47 -115 -240 -475 -259 -483 -5 -2 -8 -8 -8 -13 0 -16 -232 -347 -259
-369 -3 -3 -28 -32 -56 -65 -109 -133 -313 -326 -519 -492 -10 -8 -62 -43
-115 -78 -53 -36 -101 -68 -107 -72 -45 -34 -276 -151 -384 -195 -184 -76
-419 -136 -593 -153 l-68 -6 -25 58 c-15 32 -30 69 -36 83 -9 23 -12 21 -99
-70 -49 -52 -89 -98 -89 -103 0 -5 24 -56 52 -114 l53 -105 115 5 c63 3 115 6
115 7 0 1 14 3 30 4 44 5 116 15 145 21 14 3 39 8 55 11 83 15 139 30 291 79
488 159 994 520 1397 999 48 58 156 197 182 236 17 25 33 47 38 48 4 2 7 8 7
14 0 5 11 24 24 41 82 109 259 438 346 642 43 102 119 298 126 325 2 8 17 60
34 115 17 55 32 109 35 120 2 11 11 47 19 81 8 34 17 72 20 85 3 13 7 35 10
49 16 72 26 128 30 155 4 31 15 112 22 154 13 86 19 214 18 406 -1 244 -7 343
-31 470 -4 22 -8 45 -8 50 -2 17 -26 127 -40 181 -29 114 -89 276 -144 389
-53 109 -61 120 -86 120 -15 0 -27 -1 -28 -1z"/>
<path d="M592 4852 c-23 -60 -29 -84 -67 -272 -34 -166 -39 -527 -11 -735 2
-16 7 -55 11 -85 4 -30 13 -85 21 -122 7 -37 16 -82 19 -100 8 -42 48 -196 71
-268 10 -30 19 -59 20 -65 39 -162 205 -525 344 -755 73 -121 217 -330 244
-355 6 -5 29 -32 51 -60 115 -145 333 -357 480 -467 6 -4 24 -18 40 -32 49
-38 244 -166 254 -166 5 0 11 -3 13 -7 12 -28 396 -196 498 -218 8 -2 53 -13
100 -24 47 -12 88 -21 91 -21 7 0 29 48 33 71 1 8 6 24 10 37 6 18 1 34 -21
65 -15 23 -30 44 -34 47 -3 3 -30 44 -60 92 -30 48 -57 88 -61 88 -5 0 -8 -11
-8 -24 0 -12 -5 -37 -11 -55 -9 -24 -16 -31 -28 -26 -9 4 -27 11 -41 15 -177
55 -511 244 -650 366 -8 8 -52 46 -98 85 -96 83 -224 213 -308 314 -74 88 -75
89 -123 155 -22 30 -44 60 -49 65 -5 6 -11 15 -13 20 -2 6 -29 48 -60 95 -30
47 -73 117 -94 155 -39 70 -130 246 -132 255 -3 11 -22 57 -43 105 -62 143
-157 447 -185 592 -7 38 -36 212 -40 243 -25 187 -24 502 1 636 3 16 7 39 9
52 1 12 4 25 7 27 17 18 317 -130 473 -233 38 -26 74 -49 79 -51 5 -2 16 -10
25 -17 9 -7 63 -50 121 -96 144 -113 376 -346 499 -503 57 -71 106 -133 110
-137 3 -4 6 80 6 187 l0 193 -51 59 c-101 114 -263 270 -384 369 -95 78 -257
194 -269 194 -5 0 -11 4 -13 8 -6 16 -155 101 -290 166 -127 61 -248 107 -368
139 -109 29 -107 29 -118 -1z"/>
<path d="M6975 4850 c-218 -57 -505 -192 -698 -327 -29 -20 -65 -46 -82 -57
-154 -108 -407 -338 -557 -509 l-34 -39 3 -186 c1 -103 3 -191 3 -197 0 -5 6
-1 13 11 7 11 18 27 25 35 7 8 40 50 74 94 80 103 110 137 243 270 99 99 140
138 229 213 67 57 228 171 320 227 165 99 406 209 406 185 0 -11 0 -11 11 -60
29 -124 30 -432 3 -663 -5 -43 -40 -233 -58 -314 -21 -97 -125 -422 -152 -474
-7 -15 -10 -29 -7 -33 4 -3 2 -6 -3 -6 -6 0 -18 -25 -29 -55 -10 -31 -24 -60
-32 -66 -7 -6 -13 -17 -13 -24 0 -32 -228 -434 -252 -443 -4 -2 -8 -8 -8 -13
0 -9 -37 -67 -50 -79 -3 -3 -28 -34 -55 -70 -27 -36 -54 -70 -60 -76 -5 -7
-35 -40 -65 -75 -85 -96 -194 -203 -316 -309 -16 -14 -56 -46 -89 -70 -33 -24
-64 -48 -70 -53 -27 -24 -192 -123 -285 -170 -123 -62 -295 -131 -308 -123 -5
3 -12 28 -16 56 -4 27 -11 50 -16 50 -6 0 -10 -5 -10 -10 0 -6 -5 -16 -10 -23
-6 -7 -44 -63 -85 -125 l-75 -113 15 -52 c23 -79 24 -80 81 -67 27 7 56 13 64
15 208 44 514 181 720 323 36 25 79 55 97 67 142 98 349 289 493 454 30 35 60
69 66 75 36 38 182 241 247 343 81 128 197 345 242 453 15 36 33 79 41 95 37
82 126 340 139 405 2 8 4 15 5 15 1 0 3 7 5 15 2 8 17 74 33 145 27 116 38
178 57 320 25 182 25 556 0 685 -3 13 -7 42 -11 65 -15 109 -62 282 -77 288
-7 2 -57 -8 -112 -23z"/>
<path d="M2396 4269 c-10 -44 -16 -100 -30 -259 -4 -43 0 -50 83 -165 48 -66
113 -163 146 -215 32 -52 65 -106 74 -120 62 -100 169 -319 236 -485 48 -118
69 -183 95 -285 5 -19 23 -80 39 -135 34 -114 67 -266 75 -340 3 -27 8 -61 10
-75 24 -116 24 -569 1 -691 -3 -13 -7 -35 -10 -49 -2 -14 -7 -45 -11 -70 -3
-24 -8 -48 -10 -52 -6 -9 28 -60 61 -94 11 -11 44 -49 74 -83 l54 -62 13 38
c11 33 35 143 35 158 0 2 4 18 9 35 5 17 12 53 15 82 4 28 8 59 10 69 20 102
27 494 12 644 -13 129 -24 212 -33 260 -2 11 -7 34 -10 50 -3 17 -14 71 -25
120 -11 50 -22 100 -25 113 -10 51 -79 265 -119 372 -138 370 -329 712 -584
1044 -42 55 -92 117 -111 138 -19 21 -43 47 -52 59 l-17 22 -5 -24z"/>
<path d="M5273 4273 c-21 -20 -148 -173 -203 -247 -19 -26 -41 -53 -47 -61 -7
-7 -13 -16 -13 -19 0 -6 -78 -118 -100 -143 -5 -7 -10 -14 -10 -16 0 -6 -65
-113 -78 -130 -23 -29 -212 -396 -212 -411 0 -4 -9 -25 -19 -49 -74 -161 -187
-507 -216 -660 -3 -12 -9 -44 -15 -72 -5 -27 -12 -67 -16 -89 -3 -21 -8 -48
-10 -60 -2 -11 -7 -43 -10 -71 -3 -27 -8 -61 -10 -75 -5 -39 -16 -248 -17
-325 0 -70 11 -278 18 -325 2 -14 6 -47 10 -75 7 -58 13 -90 20 -125 3 -14 8
-38 11 -55 2 -16 10 -48 16 -70 5 -22 12 -51 15 -64 9 -49 7 -50 88 40 85 96
126 149 121 158 -4 5 -8 22 -10 38 -2 15 -6 44 -10 63 -33 179 -40 585 -12
750 3 14 7 43 10 65 10 76 17 120 22 134 2 8 7 30 10 50 3 20 21 88 39 151 19
63 43 153 55 200 19 75 106 314 130 358 5 10 37 76 71 147 97 202 222 407 375
610 46 62 52 75 48 110 -2 22 -6 67 -9 100 -2 33 -7 71 -9 84 -3 13 -6 41 -8
62 -1 22 -3 39 -3 39 -1 0 -11 -8 -22 -17z"/>
<path d="M979 4208 c-4 -42 7 -260 15 -303 4 -20 19 -122 21 -140 1 -9 14 -82
20 -115 23 -112 114 -408 150 -485 7 -16 23 -54 34 -83 23 -57 101 -217 153
-310 58 -107 228 -357 262 -387 6 -5 24 -28 41 -50 30 -41 251 -265 316 -322
98 -84 325 -237 400 -270 l26 -11 1 101 2 102 -71 195 c-39 107 -72 202 -74
212 -2 10 -6 22 -9 26 -3 5 -7 20 -9 33 -3 14 -14 56 -25 94 -12 39 -23 81
-26 95 -3 14 -15 70 -26 125 -12 55 -23 107 -25 117 -9 40 -19 114 -17 121 8
30 -272 485 -333 542 -6 6 -37 43 -69 83 -58 72 -245 266 -321 332 -32 28
-153 125 -210 168 -17 13 -148 97 -187 121 -28 17 -38 19 -39 9z m410 -609
c96 -96 167 -178 253 -294 49 -66 92 -125 97 -130 54 -70 230 -406 262 -500 7
-22 16 -44 20 -50 21 -33 125 -402 116 -412 -5 -4 -182 169 -232 227 -26 30
-58 67 -70 82 -75 85 -195 265 -270 403 -42 77 -105 203 -105 210 0 2 -11 28
-24 57 -32 68 -119 320 -130 374 -3 10 -11 48 -20 83 l-15 64 36 -34 c20 -19
57 -55 82 -80z"/>
<path d="M6616 4164 c-283 -174 -523 -403 -791 -750 -93 -121 -261 -408 -269
-462 -4 -20 -8 -50 -10 -67 -3 -16 -12 -66 -21 -110 -10 -44 -19 -92 -22 -107
-2 -14 -17 -75 -34 -135 -16 -59 -32 -119 -35 -132 -8 -39 -100 -302 -129
-371 -24 -56 -28 -81 -30 -175 -2 -60 -1 -113 1 -117 6 -9 193 98 269 154 129
96 348 299 455 423 40 46 152 195 185 245 17 25 32 47 35 50 6 6 68 108 100
165 38 67 80 153 80 164 0 6 3 11 8 11 6 0 34 53 37 70 1 3 9 23 19 45 63 143
147 384 161 465 3 18 8 36 10 40 5 7 5 12 39 187 3 11 8 43 12 70 3 26 8 57
11 68 10 53 21 315 13 320 -3 2 -46 -21 -94 -51z m-231 -591 c-34 -125 -90
-291 -126 -370 -16 -35 -25 -63 -21 -63 4 0 3 -4 -3 -8 -11 -8 -46 -68 -45
-77 1 -10 -64 -132 -123 -230 -116 -193 -234 -343 -400 -508 -60 -59 -111
-107 -112 -105 -2 2 7 48 21 103 13 55 27 110 29 122 10 42 77 228 87 241 6 6
7 12 4 12 -4 0 -1 12 7 28 8 15 31 63 52 107 82 177 219 393 354 560 81 100
67 84 191 212 75 78 106 103 108 91 2 -10 -9 -61 -23 -115z"/>
<path d="M2354 3445 c4 -66 8 -140 10 -165 9 -104 17 -176 21 -190 2 -8 7 -40
10 -70 8 -67 43 -254 55 -295 5 -16 12 -46 15 -65 6 -37 12 -63 15 -67 2 -2 3
-6 4 -10 3 -18 28 -109 33 -123 4 -8 7 -19 8 -25 2 -5 13 -41 26 -80 13 -38
24 -72 24 -75 2 -8 16 -42 30 -75 7 -16 16 -41 20 -55 4 -14 16 -45 27 -70 11
-25 26 -58 33 -75 65 -147 191 -385 204 -385 7 0 8 16 10 200 1 151 -8 296
-23 376 -2 12 -7 45 -11 75 -6 48 -39 211 -50 249 -3 8 -11 40 -18 70 -26 100
-82 266 -128 375 -7 17 -13 32 -14 35 -10 43 -149 314 -221 432 -92 151 -86
151 -80 13z"/>
<path d="M5318 3532 c-9 -15 -40 -65 -68 -112 -59 -95 -177 -326 -210 -410
-12 -30 -28 -68 -35 -85 -50 -111 -155 -478 -170 -591 -3 -22 -7 -50 -10 -64
-3 -14 -8 -47 -11 -75 -3 -27 -8 -63 -10 -80 -9 -53 -13 -470 -5 -483 17 -27
168 266 264 513 68 173 149 431 163 520 3 17 9 44 14 60 13 44 33 145 35 181
1 17 5 40 9 51 4 11 9 43 11 69 3 27 8 61 11 76 13 65 41 458 32 458 -2 0 -10
-12 -20 -28z"/>
</g>
</svg>
