<svg xmlns="http://www.w3.org/2000/svg" viewBox="0 0 383.94 325.16"><defs><style>.cls-1{fill:#010101;}</style></defs><g id="Capa_2" data-name="Capa 2"><g id="Capa_1-2" data-name="Capa 1"><g id="Capa_2-2" data-name="Capa 2"><g id="logo"><path class="cls-1" d="M192,15.26c33.7,19.28,59.5,60.88,69.89,109.53,3.64-3.72,7.4-7.28,11.23-10.62-12.69-50.57-41.29-93.28-78-112.52L192,0,188.9,1.65c-36.72,19.24-65.36,62-78,112.56,3.83,3.33,7.59,6.9,11.23,10.62C132.45,76.18,158.25,34.54,192,15.26Z"/><path class="cls-1" d="M228.83,106c.62,1.76,1.23,3.52,1.77,5.29.26.8.49,1.61.76,2.41q2.25,7.36,4,15.07c.27,1.26.58,2.57.81,3.83l.57,2.88.69,4.14c.27,1.49.5,3,.69,4.48.38,2.76.73,5.49,1,8.28q5.46-7.81,11.5-15c-7.51-45.55-29.33-85.8-58.58-106.2-29.25,20.4-51.07,60.65-58.58,106.2q6,7.19,11.5,15.06a193.3,193.3,0,0,1,3.91-24.26c.23-1.08.46-2.11.73-3.19.31-1.26.61-2.53,1-3.79a183.7,183.7,0,0,1,6.59-20.36c.54-1.34,1.07-2.68,1.61-4s1.11-2.6,1.69-3.91c1.22-2.72,2.49-5.36,3.83-8,.58-1.11,1.15-2.22,1.77-3.3s1.3-2.38,2-3.56,1.38-2.34,2.11-3.49,1.42-2.26,2.14-3.38a114.81,114.81,0,0,1,19.75-23c10.31,9,19.36,20.93,26.72,34.78,1.07,2,2.11,4.06,3.11,6.13q3.21,6.67,5.86,13.8C228.06,103.9,228.45,104.93,228.83,106Z"/><path class="cls-1" d="M226.61,172c0-40.6-13.31-80.16-34.62-104.81C170.67,91.82,157.37,131.38,157.37,172v.69c14.91,27.45,22.89,56.71,23.77,84.58A106.61,106.61,0,0,0,192,271.09a111.42,111.42,0,0,0,10.81-13.77h0c.88-27.84,8.89-57.2,23.81-84.69ZM192,249.31c-13.46-20.55-21.2-48.34-21.2-77.33,0-29.9,7.9-59.76,21.2-81.89,13.3,22.13,21.2,52,21.2,81.89C213.19,201,205.45,228.76,192,249.31Z"/><path class="cls-1" d="M184.21,172a142.67,142.67,0,0,0,7.8,46.87A142.37,142.37,0,0,0,199.77,172,159.76,159.76,0,0,0,192,122.53,160.1,160.1,0,0,0,184.21,172Z"/><path class="cls-1" d="M149.78,304.4c-.35,1-.73,1.92-1.15,2.88s-.73,1.8-1.15,2.68-.84,1.88-1.3,2.8C105.35,310,63.29,280.33,37.33,235.4,10.65,189.2,4.67,133.72,21.77,97.26c1.26.12,2.53.23,3.76.42s2.45.35,3.64.54A94,94,0,0,1,41,101.06c1.23.34,2.42.73,3.64,1.15s2.15.73,3.23,1.15c1.49.54,3,1.15,4.52,1.76l3.72,1.65c1.11.5,2.22,1,3.33,1.57.85.39,1.69.81,2.53,1.27,1.15.57,2.34,1.23,3.49,1.88,1.5.8,3,1.65,4.41,2.53a1.92,1.92,0,0,1,.46.27c1.5.88,3,1.8,4.45,2.76.38.26.8.53,1.19.76,1.61,1.08,3.14,2.15,4.71,3.26,1.73,1.23,3.45,2.49,5.18,3.84,2,1.57,4.06,3.22,6.06,4.94,1.26,1,2.49,2.11,3.71,3.22,1.73,1.53,3.45,3.14,5.14,4.76,1.42,1.38,2.84,2.75,4.22,4.21l.54.54c.57-5,1.38-9.93,2.29-14.8A180.78,180.78,0,0,0,81,106.62c-1.42-.92-2.88-1.8-4.29-2.69-2.69-1.61-5.37-3.14-8.06-4.52-1.11-.57-2.22-1.15-3.33-1.69A127.53,127.53,0,0,0,36,87.22c-1.61-.35-3.22-.65-4.83-.92-.77-.15-1.53-.27-2.3-.38s-1.54-.23-2.3-.31c-1-.15-2-.27-3-.35-1.45-.15-2.91-.23-4.36-.3-1.62-.08-3.15-.12-4.72-.12C-8.63,124.67-3.8,188.47,26.83,241.45c29.79,51.6,79.13,84.08,126.48,83.66A100.27,100.27,0,0,0,159,314Q154.21,309.46,149.78,304.4Z"/><path class="cls-1" d="M169,270c.11-2.19.15-4.41.19-6.67v-.7q0-2.7-.12-5.4c0-1.61-.11-3.18-.23-4.79a168.85,168.85,0,0,0-2.79-21c-.24-1.07-.43-2.11-.66-3.18a175.82,175.82,0,0,0-6-21.24q-1-2.82-2.07-5.64c-1.34-3.49-2.8-6.94-4.37-10.43-.5-1.15-1-2.26-1.57-3.37-2.22-4.64-4.64-9.24-7.25-13.76,0-.08-.11-.19-.15-.27q-3.27-5.7-6.9-11c-.77-1.19-1.57-2.38-2.42-3.57-1.07-1.57-2.18-3.1-3.33-4.64l-1-1.38c-.66-.88-1.31-1.72-2-2.56-2.84-3.69-5.75-7.21-8.82-10.59-.8,5.52-1.41,11.08-1.76,16.72,2.34,3,4.6,6,6.79,9.12,1.07,1.46,2.07,3,3.06,4.49s2,3.14,3,4.75,2,3.34,3,5c1.57,2.68,3,5.4,4.41,8.12.61,1.19,1.23,2.34,1.76,3.53,2.38,4.91,4.53,9.81,6.41,14.8.46,1.19.91,2.41,1.34,3.6.34,1,.65,1.88,1,2.8v.08a160.31,160.31,0,0,0,4.6,16.41,1,1,0,0,1,.11.46c.08,0,.08.07,0,.11.31,1.42.61,2.8.88,4.18s.54,2.8.77,4.18c.61,3.49,1.07,7,1.42,10.43.11,1.22.23,2.49.3,3.72a2.72,2.72,0,0,1,0,.57c.12,1,.16,2.07.19,3.11s.12,1.87.12,2.79c.11,3.53.09,7-.08,10.47-.07,1.23-.15,2.45-.23,3.64-.19,2.42-.42,4.83-.77,7.21-.19,1.38-.42,2.72-.65,4.1-.27,1.61-.57,3.22-.92,4.83a.06.06,0,0,1,0,.08c1.61,2,3.15,3.8,4.76,5.64h0c1.65,1.84,3.26,3.65,4.94,5.41.42-1.38.81-2.8,1.15-4.22.31-1.22.62-2.49.89-3.72.3-1.38.57-2.72.84-4.1s.5-2.72.73-4.1c.3-2.19.57-4.37.8-6.63.15-1.19.27-2.38.35-3.57S168.91,271.24,169,270Z"/><path class="cls-1" d="M29.47,110.61c-11.23,33-4.33,79.43,18.37,118.73,21.81,37.76,56.7,64.56,90.78,70.31.81-2.15,1.5-4.33,2.15-6.56a162.82,162.82,0,0,1-9.32-14.1c-.15,1.07-.34,2.1-.53,3.14s-.42,2.07-.65,3.1c-27.38-8.43-54.21-31.32-71.93-62C40,191.46,32.5,154.46,38.06,125.48c1.46.5,2.88,1,4.34,1.65l.88.34c1.19.5,2.34,1,3.52,1.54,1.73.8,3.42,1.65,5.1,2.53,1.19.61,2.34,1.26,3.53,2a6.85,6.85,0,0,1,.84.46c1.31.77,2.61,1.57,4,2.38s2.88,1.88,4.33,2.88,2.88,2,4.3,3.06c.07,0,.11.08.19.12,1.38,1,2.72,2.11,4.06,3.18s2.8,2.3,4.18,3.49l2.88,2.53c.88.8,1.76,1.65,2.64,2.49a15.73,15.73,0,0,1,1.46,1.38c1.23,1.19,2.45,2.42,3.64,3.68a6.88,6.88,0,0,1,.54.54c1,1,1.92,2,2.84,3.1.65.66,1.26,1.34,1.84,2,2.45,2.8,4.83,5.68,7.09,8.67a.67.67,0,0,1,.23.27l2.87,3.91a3,3,0,0,1,.5.69c-.07-2.11-.11-4.22-.11-6.37,0-4.37.11-8.7.38-13C82.53,133.61,55.35,115.74,29.47,110.61Z"/><path class="cls-1" d="M123.1,185.86q-2.82-4.89-6-9.54a217.92,217.92,0,0,0,2.65,29.75h0A195.88,195.88,0,0,0,132,249.92h0a159.82,159.82,0,0,0,12.23,24.31A131.26,131.26,0,0,0,143,241.34a.22.22,0,0,0,0-.16,157,157,0,0,0-9.27-33.35h0A170.38,170.38,0,0,0,123.1,185.86Z"/><path class="cls-1" d="M48.41,143.46c-.38,23.35,6.9,50.3,20.44,73.72,13.11,22.7,31.74,41,51.6,51a100.88,100.88,0,0,0,0-11.27,208.88,208.88,0,0,1-14.26-51.25c-1.26-2.57-2.64-5.1-4.1-7.63C88.55,174.59,68.85,154.77,48.41,143.46Zm58.24,100.87a129.13,129.13,0,0,1-27.3-33.2A145.64,145.64,0,0,1,63.1,168.84a143.88,143.88,0,0,1,28.44,35.23,128.06,128.06,0,0,1,15.11,40.26Z"/><path class="cls-1" d="M369.38,84.84c-1.57,0-3.15,0-4.72.12s-2.91.15-4.37.3c-2.6.23-5.25.62-7.89,1.08a6.78,6.78,0,0,0-1,.19,11.66,11.66,0,0,0-1.54.31c-.88.15-1.8.34-2.68.53a.37.37,0,0,0-.27.08c-1.45.31-2.87.69-4.29,1.07-2.45.65-4.87,1.38-7.32,2.23-1.08.34-2.15.72-3.22,1.15a137.83,137.83,0,0,0-16.26,7.2c-1.42.73-2.84,1.49-4.25,2.3-3.8,2.11-7.56,4.45-11.28,6.94-.73.46-1.41,1-2.14,1.46-1.27.84-2.53,1.76-3.76,2.68s-2.76,2-4.1,3.07c-2.84,2.19-5.6,4.49-8.32,6.86-1,.89-2,1.77-3,2.69s-1.92,1.76-2.88,2.68c.92,4.87,1.73,9.82,2.3,14.8a3.45,3.45,0,0,1,.54-.54c1.38-1.46,2.8-2.83,4.22-4.21,1.61-1.54,3.22-3.07,4.87-4.53s3.29-2.91,5-4.33c1.49-1.27,3-2.49,4.6-3.72l.46-.34c1.72-1.35,3.41-2.61,5.18-3.84,1.26-.92,2.57-1.8,3.87-2.68l1.57-1c2-1.34,4.1-2.64,6.21-3.83,1.15-.69,2.26-1.34,3.41-2s2.42-1.34,3.65-2c.84-.46,1.68-.88,2.52-1.27,1.12-.57,2.23-1.07,3.34-1.57l3.72-1.65c1.49-.61,3-1.22,4.52-1.76,1.08-.42,2.15-.81,3.22-1.15,1.23-.42,2.42-.81,3.64-1.15a95.17,95.17,0,0,1,11.89-2.84c1.19-.19,2.41-.38,3.64-.54s2.49-.3,3.76-.42c17.06,36.46,11.08,91.94-15.57,138.14-25.95,44.93-68,74.64-108.87,77.36-.47-.92-.89-1.84-1.31-2.8s-.8-1.8-1.15-2.68-.8-1.92-1.15-2.88A124.64,124.64,0,0,1,225,314a96.62,96.62,0,0,0,5.67,11.16c47.35.42,96.69-32.06,126.48-83.66C387.74,188.47,392.57,124.67,369.38,84.84Z"/><path class="cls-1" d="M229.64,289c-.35-1.61-.65-3.26-.92-4.91-.27-1.34-.46-2.68-.66-4.06-.07-.54-.15-1.11-.19-1.69-.19-1.34-.3-2.72-.42-4.1-.15-1.69-.27-3.37-.34-5.06-.19-3.45-.19-6.94-.08-10.47a20.94,20.94,0,0,1,.12-2.72,31,31,0,0,1,.19-3.33v-.19c.11-1.42.23-2.84.38-4.26.31-3.34.77-6.71,1.38-10.08.23-1.38.5-2.8.77-4.18s.53-2.8.88-4.18a.11.11,0,0,1,0-.14h0v-.08h0c.19-.5.34-1,.49-1.53.42-1.27.85-2.57,1.23-3.91.69-2.3,1.34-4.64,1.92-7,.34-1.34.65-2.68,1-4.06v-.19c.27-.77.5-1.54.81-2.3.54-1.54,1.11-3.11,1.69-4.64,0-.12.11-.27.15-.43.42-1.07.88-2.18,1.34-3.25.77-2,1.65-4,2.57-6,.61-1.38,1.27-2.76,1.92-4.14s1.34-2.73,2-4.07,1.38-2.64,2.07-4,1.53-2.79,2.34-4.17q1.5-2.59,3-5.07c1.11-1.8,2.26-3.56,3.41-5.32.84-1.27,1.68-2.53,2.57-3.8.65-.88,1.26-1.73,1.88-2.61.8-1.11,1.61-2.22,2.45-3.29s1.72-2.23,2.57-3.34c-.35-5.6-1-11.16-1.76-16.68q-6.22,6.9-11.85,14.5c-.73,1-1.42,1.91-2.07,2.87-1.46,2-2.88,4-4.22,6.13-1.15,1.73-2.26,3.46-3.37,5.26-1,1.65-2,3.29-3,5h0a.44.44,0,0,0-.12.15.15.15,0,0,1-.07.12c-2.61,4.52-5,9.12-7.25,13.76-.54,1.11-1.08,2.22-1.57,3.37-1.57,3.45-3,6.94-4.37,10.43q-1.09,2.82-2.07,5.64c-1,2.87-1.92,5.75-2.76,8.62-.58,2-1.15,4-1.65,6s-1,3.8-1.38,5.68a1.66,1.66,0,0,1-.12.42A167.06,167.06,0,0,0,215,251.35c-.11,1.76-.23,3.56-.26,5.36-.12,2.23-.16,4.45-.16,6.64v.07c0,2.11.08,4.18.19,6.25,0,1,.08,1.88.16,2.8.15,2.41.38,4.75.65,7.09.19,1.5.38,3,.61,4.49s.46,2.76.69,4.1.54,2.72.85,4.06c.57,2.69,1.26,5.37,2,8,1.69-1.77,3.33-3.57,4.94-5.45s3.18-3.71,4.76-5.67Z"/><path class="cls-1" d="M336.14,229.34c22.66-39.3,29.6-85.69,18.36-118.73-25.84,5.09-53.06,23-74.6,48.3.27,4.33.38,8.7.38,13.07,0,2.15,0,4.26-.11,6.37a3.8,3.8,0,0,1,.5-.69c.95-1.33,1.91-2.64,2.87-3.91a.67.67,0,0,1,.23-.27c2.26-3,4.64-5.87,7.09-8.67a26.74,26.74,0,0,1,1.84-2c.92-1.07,1.88-2.11,2.84-3.1a3.45,3.45,0,0,1,.54-.54c1.19-1.26,2.41-2.49,3.64-3.68a17.27,17.27,0,0,1,1.46-1.38c.95-1,2-1.92,3-2.8s2.22-2,3.33-2.95,2.23-1.88,3.34-2.76c1.41-1.15,2.87-2.26,4.33-3.34s2.8-2.07,4.22-3,2.87-2,4.37-2.88c1.3-.81,2.6-1.61,3.91-2.38a106.6,106.6,0,0,1,13.91-6.82c1.42-.61,2.88-1.15,4.34-1.65,5.52,29-2,66-20.32,97.76-17.68,30.67-44.51,53.56-71.92,62-.35-1.45-.62-2.91-.89-4.37-.07-.57-.19-1.18-.3-1.76V279a156.47,156.47,0,0,1-9.28,14.1c.65,2.23,1.34,4.41,2.15,6.56C279.44,293.9,314.33,267.1,336.14,229.34Z"/><path class="cls-1" d="M249.27,256.25c.92-2.07,1.8-4.14,2.68-6.25v-.11A194.94,194.94,0,0,0,264.18,206h0a209.15,209.15,0,0,0,2.65-29.67c-2.07,3.1-4.07,6.32-5.95,9.58a169.76,169.76,0,0,0-10.62,21.93h0A156.24,156.24,0,0,0,241,241.18a.43.43,0,0,0,0,.16,130.64,130.64,0,0,0-1.23,32.93c1.07-1.73,2.1-3.49,3.11-5.29.23-.42.49-.88.72-1.34,1-1.73,1.88-3.45,2.76-5.22C247.31,260.39,248.31,258.32,249.27,256.25Z"/><path class="cls-1" d="M277.87,205.49a212.84,212.84,0,0,1-14.3,51.45V257a.09.09,0,0,0,0,.07,107.76,107.76,0,0,0,0,11.08c19.82-10,38.45-28.29,51.56-51,13.53-23.42,20.86-50.37,20.44-73.72-20.44,11.31-40.1,31.13-53.64,54.56-1.42,2.45-2.76,4.94-4,7.43Zm14.53-1.42a146.05,146.05,0,0,1,28.44-35.23,143.47,143.47,0,0,1-16.25,42.29,128.39,128.39,0,0,1-27.3,33.2,129.38,129.38,0,0,1,15.11-40.26Z"/></g></g></g></g></svg>