<svg xmlns="http://www.w3.org/2000/svg" viewBox="0 0 91.17 123.43">
    <defs>
        <style>.cls-1{font-size:26.13px;fill:#0a271a;}.cls-1,.cls-6{font-family:MyriadPro-Regular, Myriad
            Pro;}.cls-2{letter-spacing:0em;}.cls-3{letter-spacing:-0.03em;}.cls-4{letter-spacing:-0.07em;}.cls-5{letter-spacing:0em;}.cls-6{font-size:9.5px;fill:#82bd52;}.cls-7{letter-spacing:0em;}.cls-8{letter-spacing:0.01em;}.cls-9{letter-spacing:-0.02em;}.cls-10{letter-spacing:-0.01em;}.cls-11{letter-spacing:0.01em;}.cls-12{letter-spacing:0em;}.cls-13,.cls-14{fill:none;stroke-miterlimit:10;}.cls-13{stroke:#036a43;stroke-width:1.19px;}.cls-14{stroke:#82bd52;stroke-width:1.72px;}
        </style>
    </defs>
    <g id="Capa_2" data-name="Capa 2">
        <g id="Capa_1-2" data-name="Capa 1">
            <text class="cls-1" transform="translate(0 105.92)">
                <tspan class="cls-2">B</tspan>
                <tspan x="14.27" y="0">ea</tspan>
                <tspan class="cls-3" x="39.95" y="0">u</tspan>
                <tspan class="cls-4" x="53.53" y="0">T</tspan>
                <tspan class="cls-5" x="64.66" y="0">ee</tspan>
            </text>
            <text class="cls-6" transform="translate(13.18 121.06)">
                <tspan class="cls-7">B</tspan>
                <tspan x="5.19" y="0">eau</tspan>
                <tspan class="cls-8" x="19.76" y="0">t</tspan>
                <tspan x="22.99" y="0">y</tspan>
                <tspan class="cls-9" x="29.48" y="0">P</tspan>
                <tspan class="cls-10" x="34.38" y="0">r</tspan>
                <tspan x="37.39" y="0">odu</tspan>
                <tspan class="cls-11" x="53.2" y="0">c</tspan>
                <tspan class="cls-12" x="57.58" y="0">ts</tspan>
            </text>
            <circle class="cls-13" cx="45.48" cy="43.24" r="38.01" transform="translate(-6.92 77.77) rotate(-76.93)"/>
            <ellipse class="cls-13" cx="49.59" cy="43.24" rx="39" ry="38.01"/>
            <ellipse class="cls-13" cx="45.2" cy="40.92" rx="41.41" ry="40.33"/>
            <path class="cls-13"
                  d="M90.52,28.17c-.23,1.37-1.11,2.35-2,2.21S87.23,29,87.46,27.64s1.11-2.35,2-2.21S90.76,26.8,90.52,28.17Z"/>
            <line class="cls-13" x1="88.99" y1="27.91" x2="87.76" y2="35.09"/>
            <path class="cls-13"
                  d="M15.86,49.45c-.24,1.37-1.11,2.36-2,2.21s-1.34-1.37-1.1-2.73,1.11-2.36,1.95-2.21S16.09,48.09,15.86,49.45Z"/>
            <line class="cls-13" x1="14.33" y1="49.19" x2="13.09" y2="56.37"/>
            <path class="cls-13"
                  d="M4.85,27.55c.18,1.38-.36,2.58-1.21,2.69S2,29.33,1.77,28,2.13,25.38,3,25.27,4.67,26.18,4.85,27.55Z"/>
            <line class="cls-13" x1="3.31" y1="27.76" x2="4.26" y2="34.98"/>
            <path class="cls-13"
                  d="M82.26,39.33c.47,1.3.21,2.59-.6,2.89s-1.84-.52-2.32-1.83-.21-2.59.6-2.89S81.78,38,82.26,39.33Z"/>
            <line class="cls-13" x1="80.8" y1="39.86" x2="83.3" y2="46.7"/>
            <line class="cls-13" x1="17.69" y1="61.89" x2="17.69" y2="65.11"/>
            <line class="cls-13" x1="3.79" y1="51.23" x2="5.46" y2="52.28"/>
            <line class="cls-13" x1="4.9" y1="38.79" x2="3.79" y2="40.92"/>
            <line class="cls-13" x1="34.42" y1="78.27" x2="33.66" y2="76.29"/>
            <line class="cls-13" x1="80.8" y1="52.93" x2="81.52" y2="55.37"/>
            <line class="cls-13" x1="84.08" y1="48.59" x2="82.83" y2="50.38"/>
            <line class="cls-13" x1="85.37" y1="37.55" x2="86.59" y2="39.43"/>
            <line class="cls-13" x1="89.84" y1="42.78" x2="88.48" y2="45.71"/>
            <path class="cls-14"
                  d="M54.14,41.78A18.5,18.5,0,0,1,46.4,57a18.49,18.49,0,0,1-7.75-15.19c0-10.32,5.3-14,7.75-22.18C48.85,27.94,54.14,31.46,54.14,41.78Z"/>
            <path class="cls-14"
                  d="M59.51,49.47a16.28,16.28,0,0,1-13,7.5A16.3,16.3,0,0,1,48.06,42c5-7.63,10.66-7.81,16.39-12.67C62.26,36.69,64.47,41.85,59.51,49.47Z"/>
            <path class="cls-14"
                  d="M59.9,56.69a14.47,14.47,0,0,1-13.33.25A14.44,14.44,0,0,1,54.19,46c7.11-3.81,11.62-1.51,18.15-2.84C67.5,47.93,67,52.88,59.9,56.69Z"/>
            <path class="cls-14"
                  d="M32.8,49.47a16.29,16.29,0,0,0,13,7.5A16.28,16.28,0,0,0,44.25,42c-5-7.63-10.66-7.81-16.39-12.67C30.06,36.69,27.84,41.85,32.8,49.47Z"/>
            <path class="cls-14"
                  d="M32.41,56.69a14.46,14.46,0,0,0,13.33.25A14.45,14.45,0,0,0,38.13,46C31,42.19,26.5,44.49,20,43.16,24.81,47.93,25.29,52.88,32.41,56.69Z"/>
            <line class="cls-14" x1="46.16" y1="56.97" x2="46.16" y2="67.84"/>
        </g>
    </g>
</svg>