<svg xmlns="http://www.w3.org/2000/svg" viewBox="0 0 383.93 392.94">
    <g id="Capa_2" data-name="Capa 2">
        <g id="logo">
            <path d="M192,15.26c33.7,19.28,59.5,60.88,69.89,109.53,3.64-3.72,7.4-7.28,11.23-10.62-12.69-50.57-41.29-93.28-78-112.52L192,0l-3.11,1.65c-36.72,19.24-65.36,62-78,112.56,3.83,3.33,7.59,6.9,11.23,10.62C132.44,76.18,158.24,34.54,192,15.26Z"/>
            <path d="M228.82,106c.62,1.76,1.23,3.52,1.77,5.29.26.8.49,1.61.76,2.41,1.5,4.91,2.84,9.93,4,15.07.27,1.26.58,2.57.81,3.83l.57,2.88.69,4.14c.27,1.49.5,3,.69,4.48.38,2.76.73,5.49,1,8.28q5.46-7.82,11.5-15c-7.51-45.55-29.33-85.8-58.58-106.2-29.25,20.4-51.07,60.65-58.58,106.2q6,7.18,11.5,15.06a193.18,193.18,0,0,1,3.91-24.26c.23-1.08.46-2.11.73-3.19.31-1.26.61-2.53,1-3.79a182.71,182.71,0,0,1,6.59-20.36c.54-1.34,1.07-2.68,1.61-4s1.11-2.6,1.69-3.91c1.22-2.72,2.49-5.36,3.83-8,.58-1.11,1.15-2.22,1.77-3.3s1.3-2.38,2-3.56,1.38-2.34,2.11-3.49,1.42-2.26,2.14-3.38a114.64,114.64,0,0,1,19.75-23c10.31,9.05,19.36,20.93,26.72,34.78,1.07,2,2.11,4.06,3.11,6.13q3.21,6.68,5.86,13.8C228.05,103.9,228.44,104.93,228.82,106Z"/>
            <path d="M226.6,172c0-40.6-13.31-80.16-34.62-104.81C170.66,91.82,157.36,131.38,157.36,172v.69c14.91,27.45,22.89,56.71,23.77,84.58A105.93,105.93,0,0,0,192,271.09a111.55,111.55,0,0,0,10.81-13.77v0c.88-27.84,8.89-57.2,23.81-84.69ZM192,249.31c-13.46-20.55-21.2-48.34-21.2-77.33,0-29.9,7.9-59.76,21.2-81.89,13.3,22.13,21.2,52,21.2,81.89C213.18,201,205.44,228.76,192,249.31Z"/>
            <path d="M184.2,172A142.4,142.4,0,0,0,192,218.87,142.4,142.4,0,0,0,199.76,172,159.91,159.91,0,0,0,192,122.53,159.91,159.91,0,0,0,184.2,172Z"/>
            <path d="M149.77,304.4c-.35,1-.73,1.92-1.15,2.88s-.73,1.8-1.15,2.68-.84,1.88-1.3,2.8C105.34,310,63.28,280.33,37.32,235.4,10.64,189.2,4.66,133.72,21.76,97.26c1.26.12,2.53.23,3.76.42s2.45.35,3.64.54A94.79,94.79,0,0,1,41,101.06c1.23.34,2.42.73,3.64,1.15s2.15.73,3.23,1.15c1.49.54,3,1.15,4.52,1.76l3.72,1.65c1.11.5,2.22,1,3.33,1.57.85.39,1.69.81,2.53,1.27,1.15.57,2.34,1.23,3.49,1.88,1.5.8,3,1.65,4.41,2.53a2.2,2.2,0,0,1,.46.27c1.5.88,3,1.8,4.45,2.76.38.26.8.53,1.19.76,1.61,1.08,3.14,2.15,4.71,3.26,1.73,1.23,3.45,2.49,5.18,3.84,2,1.57,4.06,3.22,6.06,4.94,1.26,1,2.49,2.11,3.71,3.22,1.73,1.53,3.45,3.14,5.14,4.76,1.42,1.38,2.84,2.75,4.22,4.21l.54.54c.57-5,1.38-9.93,2.29-14.8A180.69,180.69,0,0,0,81,106.62c-1.42-.92-2.88-1.8-4.29-2.69-2.69-1.61-5.37-3.14-8.06-4.52-1.11-.57-2.22-1.15-3.33-1.69a127.66,127.66,0,0,0-29.29-10.5c-1.61-.35-3.22-.65-4.83-.92-.77-.15-1.53-.27-2.3-.38s-1.54-.23-2.3-.31c-1-.15-2-.27-3-.35-1.45-.15-2.91-.23-4.36-.3-1.62-.08-3.15-.12-4.72-.12C-8.64,124.67-3.81,188.47,26.82,241.45c29.79,51.6,79.13,84.08,126.48,83.66A102.44,102.44,0,0,0,159,314Q154.2,309.46,149.77,304.4Z"/>
            <path d="M169,270c.11-2.19.15-4.41.19-6.67v-.7q0-2.7-.12-5.4c0-1.61-.11-3.18-.23-4.79a170.48,170.48,0,0,0-2.79-21c-.24-1.07-.43-2.11-.66-3.18a175.78,175.78,0,0,0-6-21.24q-1-2.82-2.07-5.64c-1.34-3.49-2.8-6.94-4.37-10.43-.5-1.15-1-2.26-1.57-3.37-2.22-4.64-4.64-9.24-7.25-13.76,0-.08-.11-.19-.15-.27q-3.27-5.7-6.9-11c-.77-1.19-1.57-2.38-2.42-3.57-1.07-1.57-2.18-3.1-3.33-4.64l-1-1.38c-.66-.88-1.31-1.72-2-2.56-2.84-3.69-5.75-7.21-8.82-10.59-.8,5.52-1.41,11.08-1.76,16.72,2.34,3,4.6,6,6.79,9.12,1.07,1.46,2.07,3,3.06,4.49s2,3.14,3,4.75,2,3.34,3,5c1.57,2.68,3,5.4,4.41,8.12.61,1.19,1.23,2.34,1.76,3.53,2.38,4.91,4.53,9.81,6.41,14.8.46,1.19.91,2.41,1.34,3.6.34,1,.65,1.88,1,2.8v.08a160.81,160.81,0,0,0,4.6,16.41,1.07,1.07,0,0,1,.11.46c.08,0,.08.07,0,.11.31,1.42.61,2.8.88,4.18s.54,2.8.77,4.18c.61,3.49,1.07,7,1.42,10.43.11,1.22.23,2.49.3,3.72a2.73,2.73,0,0,1,0,.57c.12,1,.16,2.07.19,3.11s.12,1.87.12,2.79q.17,5.3-.08,10.47c-.07,1.23-.15,2.45-.23,3.64-.19,2.42-.42,4.83-.77,7.21-.19,1.38-.42,2.72-.65,4.1-.27,1.61-.57,3.22-.92,4.83a.06.06,0,0,1,0,.08c1.61,2,3.15,3.8,4.76,5.64v0c1.65,1.84,3.26,3.65,4.94,5.41.42-1.38.81-2.8,1.15-4.22.31-1.22.62-2.49.89-3.72.3-1.38.57-2.72.84-4.1s.5-2.72.73-4.1c.3-2.19.57-4.37.8-6.63.15-1.19.27-2.38.35-3.57S168.9,271.24,169,270Z"/>
            <path d="M29.46,110.61c-11.23,33-4.33,79.43,18.37,118.73,21.81,37.76,56.7,64.56,90.78,70.31.81-2.15,1.5-4.33,2.15-6.56a162.9,162.9,0,0,1-9.32-14.1c-.15,1.07-.34,2.1-.53,3.14s-.42,2.07-.65,3.1c-27.38-8.43-54.21-31.32-71.93-62C40,191.46,32.49,154.46,38.05,125.48c1.46.5,2.88,1,4.34,1.65l.88.34c1.19.5,2.34,1,3.52,1.54,1.73.8,3.42,1.65,5.1,2.53,1.19.61,2.34,1.26,3.53,2a6.72,6.72,0,0,1,.84.46c1.31.77,2.61,1.57,4,2.38s2.88,1.88,4.33,2.88,2.88,2,4.3,3.06c.07,0,.11.08.19.12,1.38,1,2.72,2.11,4.06,3.18s2.8,2.3,4.18,3.49l2.88,2.53c.88.8,1.76,1.65,2.64,2.49.5.42,1,.88,1.46,1.38,1.23,1.19,2.45,2.42,3.64,3.68a6.87,6.87,0,0,1,.54.54c1,1,1.92,2,2.84,3.1.65.66,1.26,1.34,1.84,2,2.45,2.8,4.83,5.68,7.09,8.67a.79.79,0,0,1,.23.27l2.87,3.91a3.33,3.33,0,0,1,.5.69c-.07-2.11-.11-4.22-.11-6.37,0-4.37.11-8.7.38-13C82.52,133.61,55.34,115.74,29.46,110.61Z"/>
            <path d="M123.09,185.86c-1.88-3.26-3.88-6.44-6-9.54a217.43,217.43,0,0,0,2.65,29.75v0A195.94,195.94,0,0,0,132,249.92l0,0a159.72,159.72,0,0,0,12.23,24.31A131.65,131.65,0,0,0,143,241.34a.3.3,0,0,0,0-.16,156.81,156.81,0,0,0-9.27-33.35v0A170.65,170.65,0,0,0,123.09,185.86Z"/>
            <path d="M48.4,143.46c-.38,23.35,6.9,50.3,20.44,73.72,13.11,22.7,31.74,41,51.6,51a101,101,0,0,0,0-11.27,208.69,208.69,0,0,1-14.26-51.25c-1.26-2.57-2.64-5.1-4.1-7.63C88.54,174.59,68.84,154.77,48.4,143.46Zm58.24,100.87a129.2,129.2,0,0,1-27.3-33.2,145.59,145.59,0,0,1-16.25-42.29,144,144,0,0,1,28.44,35.23A128.32,128.32,0,0,1,106.64,244.33Z"/>
            <path d="M369.37,84.84c-1.57,0-3.15,0-4.72.12s-2.91.15-4.37.3c-2.6.23-5.25.62-7.89,1.08a7.1,7.1,0,0,0-1,.19,11.67,11.67,0,0,0-1.54.31c-.88.15-1.8.34-2.68.53-.07,0-.19,0-.27.08-1.45.31-2.87.69-4.29,1.07-2.45.65-4.87,1.38-7.32,2.23-1.08.34-2.15.72-3.22,1.15a138.12,138.12,0,0,0-16.26,7.2q-2.13,1.09-4.25,2.3c-3.8,2.11-7.56,4.45-11.28,6.94-.73.46-1.41,1-2.14,1.46-1.27.84-2.53,1.76-3.76,2.68s-2.76,2-4.1,3.07c-2.84,2.19-5.6,4.49-8.32,6.86-1,.89-2,1.77-3,2.69s-1.92,1.76-2.88,2.68c.92,4.87,1.73,9.82,2.3,14.8a3.93,3.93,0,0,1,.54-.54c1.38-1.46,2.8-2.83,4.22-4.21,1.61-1.54,3.22-3.07,4.87-4.53s3.29-2.91,5-4.33c1.49-1.27,3-2.49,4.6-3.72l.46-.34c1.72-1.35,3.41-2.61,5.18-3.84,1.26-.92,2.57-1.8,3.87-2.68l1.57-1c2-1.34,4.1-2.64,6.21-3.83,1.15-.69,2.26-1.34,3.41-2s2.42-1.34,3.65-2c.84-.46,1.68-.88,2.52-1.27,1.12-.57,2.23-1.07,3.34-1.57l3.72-1.65c1.49-.61,3-1.22,4.52-1.76,1.08-.42,2.15-.81,3.22-1.15,1.23-.42,2.42-.81,3.64-1.15a94.93,94.93,0,0,1,11.89-2.84c1.19-.19,2.41-.38,3.64-.54s2.49-.3,3.76-.42c17.06,36.46,11.08,91.94-15.57,138.14-25.95,44.93-68.05,74.64-108.87,77.36-.47-.92-.89-1.84-1.31-2.8s-.8-1.8-1.15-2.68-.8-1.92-1.15-2.88A125.66,125.66,0,0,1,225,314a95.76,95.76,0,0,0,5.67,11.16c47.35.42,96.69-32.06,126.48-83.66C387.73,188.47,392.56,124.67,369.37,84.84Z"/>
            <path d="M229.63,289c-.35-1.61-.65-3.26-.92-4.91-.27-1.34-.46-2.68-.66-4.06-.07-.54-.15-1.11-.19-1.69-.19-1.34-.3-2.72-.42-4.1-.15-1.69-.27-3.37-.34-5.06-.19-3.45-.19-6.94-.08-10.47,0-.88,0-1.8.12-2.72,0-1.11.07-2.22.19-3.33,0,0,0-.12,0-.19.11-1.42.23-2.84.38-4.26.31-3.34.77-6.71,1.38-10.08.23-1.38.5-2.8.77-4.18s.53-2.8.88-4.18a.1.1,0,0,1,0-.15v-.08a0,0,0,0,1,0,0c.19-.5.34-1,.49-1.53.42-1.27.85-2.57,1.23-3.91.69-2.3,1.34-4.64,1.92-7,.34-1.34.65-2.68,1-4.06,0-.08,0-.16,0-.19.27-.77.5-1.54.81-2.3.54-1.54,1.11-3.11,1.69-4.64,0-.12.11-.27.15-.43.42-1.07.88-2.18,1.34-3.25.77-2,1.65-4,2.57-6,.61-1.38,1.27-2.76,1.92-4.14s1.34-2.73,2-4.07,1.38-2.64,2.07-4,1.53-2.79,2.34-4.17c1-1.73,2-3.42,3-5.07,1.11-1.8,2.26-3.56,3.41-5.32.84-1.27,1.68-2.53,2.57-3.8.65-.88,1.26-1.73,1.88-2.61.8-1.11,1.61-2.22,2.45-3.29s1.72-2.23,2.57-3.34c-.35-5.6-1-11.16-1.76-16.68q-6.22,6.9-11.85,14.5c-.73,1-1.42,1.91-2.07,2.87-1.46,2-2.88,4-4.22,6.13-1.15,1.73-2.26,3.46-3.37,5.26-1,1.65-2,3.29-3,5v0a.65.65,0,0,0-.12.15s0,.08-.07.12c-2.61,4.52-5,9.12-7.25,13.76-.54,1.11-1.08,2.22-1.57,3.37-1.57,3.45-3,6.94-4.37,10.43q-1.09,2.82-2.07,5.64c-1,2.87-1.92,5.75-2.76,8.62-.58,2-1.15,4-1.65,6s-1,3.8-1.38,5.68c0,.15-.08.27-.12.42a166.64,166.64,0,0,0-3.49,23.66c-.11,1.76-.23,3.56-.26,5.36-.12,2.23-.16,4.45-.16,6.64v.07c0,2.11.08,4.18.19,6.25,0,1,.08,1.88.16,2.8.15,2.41.38,4.75.65,7.09.19,1.5.38,3,.61,4.49s.46,2.76.69,4.1.54,2.72.85,4.06c.57,2.69,1.26,5.37,2,8,1.69-1.77,3.33-3.57,4.94-5.45s3.18-3.71,4.76-5.67Z"/>
            <path d="M336.13,229.34c22.66-39.3,29.6-85.69,18.36-118.73-25.84,5.09-53.06,23-74.6,48.3.27,4.33.38,8.7.38,13.07,0,2.15,0,4.26-.11,6.37a3.33,3.33,0,0,1,.5-.69q1.43-2,2.87-3.91a.69.69,0,0,1,.23-.27c2.26-3,4.64-5.87,7.09-8.67.58-.69,1.19-1.37,1.84-2,.92-1.07,1.88-2.11,2.84-3.1a3.07,3.07,0,0,1,.54-.54c1.19-1.26,2.41-2.49,3.64-3.68a15.73,15.73,0,0,1,1.46-1.38c.95-1,2-1.92,3-2.8,1.11-1,2.22-2,3.33-2.95s2.23-1.88,3.34-2.76c1.41-1.15,2.87-2.26,4.33-3.34s2.8-2.07,4.22-3,2.87-2,4.37-2.88c1.3-.81,2.6-1.61,3.91-2.38a106.91,106.91,0,0,1,13.91-6.82c1.42-.61,2.88-1.15,4.34-1.65,5.52,29-2,66-20.32,97.76-17.68,30.67-44.51,53.56-71.92,62-.35-1.45-.62-2.91-.89-4.37-.07-.57-.19-1.18-.3-1.76V279a156.63,156.63,0,0,1-9.28,14.1c.65,2.23,1.34,4.41,2.15,6.56C279.43,293.9,314.32,267.1,336.13,229.34Z"/>
            <path d="M249.26,256.25c.92-2.07,1.8-4.14,2.68-6.25,0-.08,0-.11,0-.11A195.18,195.18,0,0,0,264.17,206v0a210.16,210.16,0,0,0,2.65-29.67c-2.07,3.1-4.07,6.32-5.95,9.58a169.34,169.34,0,0,0-10.62,21.93v0A156.22,156.22,0,0,0,241,241.18a.3.3,0,0,0,0,.16,130.71,130.71,0,0,0-1.23,32.93q1.6-2.59,3.11-5.29c.23-.42.49-.88.72-1.34,1-1.73,1.88-3.45,2.76-5.22C247.3,260.39,248.3,258.32,249.26,256.25Z"/>
            <path d="M277.86,205.49a213,213,0,0,1-14.3,51.45s0,0,0,.08a.11.11,0,0,0,0,.07,107.75,107.75,0,0,0,0,11.08c19.82-10,38.45-28.29,51.56-51,13.53-23.42,20.86-50.37,20.44-73.72-20.44,11.31-40.1,31.13-53.64,54.56-1.42,2.45-2.76,4.94-4,7.43Zm14.53-1.42a145.92,145.92,0,0,1,28.44-35.23,143.63,143.63,0,0,1-16.25,42.29,128.39,128.39,0,0,1-27.3,33.2A129.31,129.31,0,0,1,292.39,204.07Z"/>
            <path d="M54.06,391.74q.13-12.89.13-24.49,0-3.37-.06-8.85t-.07-9.87h5.77c-.06,3.09-.1,6.73-.1,10.91V369.7q0,11.51.2,22Zm43.28-3.4-3.8,3.92Q89,389.07,76.62,380.63l-14-9.51v0q3.21-2.43,11.94-8.95t17.67-13.68l4,3.22q-4.48,3.29-14.45,11T71.22,370.8v0l11.14,7.52Q91.92,384.83,97.34,388.34Z"/>
            <path d="M107.88,391.68q.16-11.87.16-21.14,0-3.68,0-9.64t-.13-12.37h5.32q-.06,4.61-.11,10.71t0,10q0,9.79.16,22.46Z"/>
            <path d="M180.69,370.31a19.58,19.58,0,0,1-2.29,9.3A22.62,22.62,0,0,1,172,387a28.06,28.06,0,0,1-8.53,4.43,34.51,34.51,0,0,1-10.55,1.5,36,36,0,0,1-10-1.32,26.74,26.74,0,0,1-8.38-4.07,23.82,23.82,0,0,1-6.9-7.57,19.37,19.37,0,0,1-2.48-9.7,20.55,20.55,0,0,1,2-9.12,22.38,22.38,0,0,1,6.06-7.44,27.73,27.73,0,0,1,8.8-4.77,34,34,0,0,1,10.79-1.62,34.53,34.53,0,0,1,10.67,1.52,28.53,28.53,0,0,1,8.57,4.48,22.38,22.38,0,0,1,6.45,7.56A20.53,20.53,0,0,1,180.69,370.31Zm-6,0a17,17,0,0,0-2-8.31,18.13,18.13,0,0,0-6-6.28,20.51,20.51,0,0,0-6.4-2.94,28.88,28.88,0,0,0-7.46-.93,27.07,27.07,0,0,0-7.68,1,21.08,21.08,0,0,0-6.34,3.09,18.57,18.57,0,0,0-5.85,6.35,16.74,16.74,0,0,0-1.82,7.86,16.11,16.11,0,0,0,2,8.09,18.74,18.74,0,0,0,6,6.29,20.78,20.78,0,0,0,6.4,2.9,28.37,28.37,0,0,0,7.33.93,27.52,27.52,0,0,0,7.49-.95,22.6,22.6,0,0,0,6.49-3,18.76,18.76,0,0,0,5.85-6.22A15.92,15.92,0,0,0,174.72,370.34Z"/>
            <path d="M272.05,349.82q-9.09,17.91-20.27,42.05h-5q-9.87-21.17-17-35.32h-.1q-7.32,13.27-18.21,35.32h-5.09Q193.64,364,186.65,350l5.66-2.13q10,22.08,17.19,36.9h.1q7-13.69,17.75-35.05H233q9.76,21.36,16.3,34.72h.07q7.54-15.46,17.31-36.51Z"/>
            <path d="M333.7,370.31a19.57,19.57,0,0,1-2.28,9.3A22.53,22.53,0,0,1,325,387a27.89,27.89,0,0,1-8.52,4.43,34.55,34.55,0,0,1-10.55,1.5,36,36,0,0,1-10-1.32,26.63,26.63,0,0,1-8.38-4.07,23.71,23.71,0,0,1-6.9-7.57,19.37,19.37,0,0,1-2.48-9.7,20.55,20.55,0,0,1,2-9.12,22.38,22.38,0,0,1,6.06-7.44,27.73,27.73,0,0,1,8.8-4.77,34,34,0,0,1,10.79-1.62,34.57,34.57,0,0,1,10.67,1.52,28.65,28.65,0,0,1,8.57,4.48,22.38,22.38,0,0,1,6.45,7.56A20.52,20.52,0,0,1,333.7,370.31Zm-6,0a17,17,0,0,0-2-8.31,18.13,18.13,0,0,0-6-6.28,20.51,20.51,0,0,0-6.4-2.94,28.93,28.93,0,0,0-7.46-.93,27,27,0,0,0-7.68,1,21.08,21.08,0,0,0-6.34,3.09,18.57,18.57,0,0,0-5.85,6.35,16.74,16.74,0,0,0-1.82,7.86,16.11,16.11,0,0,0,2,8.09,18.74,18.74,0,0,0,6,6.29,20.83,20.83,0,0,0,6.39,2.9,28.5,28.5,0,0,0,7.34.93,27.57,27.57,0,0,0,7.49-.95,22.6,22.6,0,0,0,6.49-3,18.76,18.76,0,0,0,5.85-6.22A15.92,15.92,0,0,0,327.74,370.34Z"/>
        </g>
    </g>
</svg>